<svg width="49" height="75" viewBox="0 0 49 75" fill="none" xmlns="http://www.w3.org/2000/svg">
<mask id="mask0" mask-type="alpha" maskUnits="userSpaceOnUse" x="0" y="0" width="49" height="75">
<rect width="49" height="75" fill="#2C2C2E"/>
</mask>
<g mask="url(#mask0)">
<path d="M33.9598 0.855439C35.7902 0.268739 37.8078 0.203678 39.7854 0.783456C45.0294 2.32081 48.0065 7.80992 46.4351 13.0437L38.6619 38.9326C44.8418 44.588 47.5826 53.5522 44.9701 62.2355C42.8717 69.2098 37.7783 74.4788 31.55 77.0168C38.2298 74.6523 43.7604 69.1991 45.9701 61.8549C48.5826 53.1717 45.8418 44.2075 39.6619 38.5521L47.4351 12.6632C49.0065 7.42941 46.0294 1.9403 40.7854 0.402947C38.4401 -0.284617 36.0387 -0.0653019 33.9598 0.855439Z" fill="#AFAFAF" fill-opacity="0.56"/>
<path d="M27.4457 7.47643C29.0172 2.24263 34.5421 -0.753917 39.7861 0.78344C45.03 2.3208 48.0071 7.8099 46.4357 13.0437L38.6626 38.9326C44.8424 44.588 47.5832 53.5522 44.9707 62.2354C41.3344 74.3216 28.7038 81.2865 16.7595 77.7919C4.81513 74.2974 -1.91983 61.6668 1.71648 49.5807C4.30219 40.9865 11.4357 34.9818 19.6364 33.4858L21.7042 26.5989L25.7648 27.8036C26.4118 27.9956 27.092 27.6267 27.2839 26.9797C27.4759 26.3326 27.107 25.6525 26.46 25.4605L22.4071 24.2581L23.442 20.8113L27.4006 21.9858C28.0476 22.1777 28.7278 21.8088 28.9197 21.1618C29.1117 20.5148 28.7428 19.8346 28.0958 19.6427L24.1448 18.4705L25.1683 15.0617L29.1442 16.2414C29.7912 16.4333 30.4714 16.0644 30.6633 15.4174C30.8553 14.7704 30.4864 14.0902 29.8394 13.8983L25.8711 12.7209L27.4457 7.47643Z" fill="url(#paint0_linear)"/>
<path opacity="0.2" fill-rule="evenodd" clip-rule="evenodd" d="M25.7664 68.7073C32.9102 67.2768 37.4515 60.2355 35.9096 52.9803C35.3518 50.3558 34.0744 48.0627 32.3328 46.2725C30.5745 46.1335 28.0916 46.1117 25.8084 46.9625C24.5436 47.4338 23.3317 48.1747 22.1193 48.9158C20.5003 49.9055 18.8804 50.8957 17.1323 51.2458C14.9172 51.6895 12.4722 51.1101 10.6372 50.5014C9.72876 52.8458 9.47153 55.4887 10.0394 58.1607C11.5813 65.416 18.6225 70.1378 25.7664 68.7073Z" fill="black"/>
<circle r="2" transform="matrix(1 0 0 -1 21 62)" fill="#AFAFAF" fill-opacity="0.56"/>
<circle opacity="0.2" r="2" transform="matrix(1 0 0 -1 14 44)" fill="black"/>
<circle opacity="0.2" r="1" transform="matrix(1 0 0 -1 16 48)" fill="black"/>
<circle opacity="0.2" r="1" transform="matrix(1 0 0 -1 28 43)" fill="black"/>
<circle r="1.5" transform="matrix(1 0 0 -1 16.5 57.5)" fill="#AFAFAF" fill-opacity="0.56"/>
<circle r="1" transform="matrix(1 0 0 -1 20 54)" fill="#AFAFAF" fill-opacity="0.56"/>
</g>
<defs>
<linearGradient id="paint0_linear" x1="39.8301" y1="78.6942" x2="39.8301" y2="0.380493" gradientUnits="userSpaceOnUse">
<stop stop-color="white" stop-opacity="0.6"/>
<stop offset="0.0001" stop-color="white" stop-opacity="0.76"/>
<stop offset="1" stop-color="white" stop-opacity="0.62"/>
</linearGradient>
</defs>
</svg>
